<?xml version="1.0" encoding="utf-8"?><!DOCTYPE svg PUBLIC "-//W3C//DTD SVG 1.1//EN" "http://www.w3.org/Graphics/SVG/1.1/DTD/svg11.dtd"><svg xmlns="http://www.w3.org/2000/svg" viewBox="0 0 37 37" shape-rendering="crispEdges"><path stroke="#1a1714" d="M0 0.5h7m4 0h5m2 0h1m1 0h3m1 0h2m2 0h1m1 0h7M0 1.5h1m5 0h1m3 0h1m2 0h3m3 0h1m1 0h2m2 0h4m1 0h1m5 0h1M0 2.5h1m1 0h3m1 0h1m1 0h1m1 0h1m2 0h2m4 0h4m1 0h1m2 0h2m1 0h1m1 0h3m1 0h1M0 3.5h1m1 0h3m1 0h1m1 0h1m2 0h4m1 0h2m1 0h1m2 0h1m1 0h3m3 0h1m1 0h3m1 0h1M0 4.5h1m1 0h3m1 0h1m1 0h1m10 0h2m1 0h2m4 0h1m1 0h1m1 0h3m1 0h1M0 5.5h1m5 0h1m1 0h5m2 0h1m2 0h1m1 0h1m1 0h1m1 0h1m2 0h2m1 0h1m5 0h1M0 6.5h7m1 0h1m1 0h1m1 0h1m1 0h1m1 0h1m1 0h1m1 0h1m1 0h1m1 0h1m1 0h1m1 0h1m1 0h7M8 7.5h1m6 0h1m4 0h1m5 0h1m1 0h1M0 8.5h1m1 0h5m2 0h1m2 0h1m1 0h2m2 0h5m1 0h3m3 0h5M2 9.5h3m3 0h2m1 0h1m2 0h3m4 0h1m4 0h1m1 0h1m5 0h2M1 10.5h3m2 0h1m1 0h1m1 0h1m2 0h2m2 0h2m1 0h1m1 0h3m2 0h1m1 0h8M0 11.5h2m1 0h2m5 0h2m1 0h2m1 0h1m4 0h1m1 0h1m2 0h1m3 0h1m1 0h1m3 0h1M1 12.5h1m1 0h5m9 0h1m4 0h6m1 0h2m1 0h5M2 13.5h1m5 0h1m1 0h1m2 0h1m2 0h2m1 0h1m1 0h1m1 0h1m4 0h1m2 0h1M0 14.5h2m1 0h1m1 0h4m2 0h1m1 0h5m3 0h1m4 0h4m1 0h3m1 0h2M1 15.5h1m1 0h2m2 0h1m1 0h3m1 0h1m1 0h1m1 0h3m1 0h3m3 0h6m2 0h1M3 16.5h1m2 0h2m1 0h2m1 0h5m4 0h1m1 0h1m1 0h2m1 0h3m1 0h1m1 0h2M0 17.5h1m1 0h1m1 0h1m3 0h3m2 0h3m2 0h1m1 0h3m1 0h1m3 0h1m2 0h1m3 0h1M0 18.5h4m1 0h2m2 0h1m2 0h1m1 0h6m1 0h2m3 0h4m2 0h1m2 0h2M0 19.5h1m1 0h3m2 0h1m2 0h1m1 0h2m1 0h1m3 0h4m1 0h1m3 0h2m6 0h1M0 20.5h1m1 0h5m2 0h2m2 0h3m1 0h1m1 0h2m1 0h1m1 0h2m3 0h2m1 0h1m1 0h1M1 21.5h1m1 0h1m1 0h1m1 0h3m2 0h1m1 0h1m1 0h1m1 0h3m2 0h3m2 0h1m4 0h1M6 22.5h2m3 0h2m2 0h2m1 0h1m1 0h1m1 0h1m1 0h1m2 0h1m3 0h3m2 0h1M2 23.5h1m4 0h2m2 0h1m1 0h1m1 0h1m4 0h1m2 0h2m1 0h1m1 0h5m2 0h1M0 24.5h1m4 0h2m2 0h1m2 0h2m4 0h1m1 0h7m2 0h4m1 0h1m1 0h1M0 25.5h3m1 0h1m2 0h1m2 0h2m1 0h1m1 0h2m8 0h1m2 0h1m2 0h1M0 26.5h1m3 0h3m2 0h1m1 0h2m1 0h1m5 0h8m2 0h4m1 0h2M0 27.5h1m1 0h1m1 0h2m1 0h1m1 0h2m5 0h1m4 0h1m1 0h1m4 0h2m1 0h2m2 0h1M0 28.5h1m3 0h1m1 0h3m3 0h1m4 0h1m4 0h2m1 0h8m1 0h2M8 29.5h4m1 0h2m1 0h6m1 0h1m1 0h4m3 0h2m1 0h1M0 30.5h7m3 0h2m1 0h3m1 0h1m3 0h1m3 0h2m1 0h1m1 0h1m1 0h1m1 0h3M0 31.5h1m5 0h1m1 0h6m1 0h4m2 0h2m1 0h1m1 0h3m3 0h2m2 0h1M0 32.5h1m1 0h3m1 0h1m1 0h1m5 0h3m4 0h1m1 0h10m1 0h2M0 33.5h1m1 0h3m1 0h1m1 0h1m1 0h1m1 0h4m1 0h2m1 0h1m1 0h1m1 0h2m2 0h3m1 0h1m2 0h1M0 34.5h1m1 0h3m1 0h1m1 0h1m1 0h1m1 0h6m1 0h1m2 0h1m1 0h1m2 0h1m1 0h1m4 0h1m1 0h1M0 35.5h1m5 0h1m5 0h1m1 0h2m2 0h6m3 0h3m2 0h1m3 0h1M0 36.5h7m1 0h1m1 0h2m1 0h1m1 0h3m1 0h2m1 0h2m1 0h2m5 0h5"/></svg>
