<svg xmlns="http://www.w3.org/2000/svg" width="32" height="32" viewBox="0 0 32 32">
  <!-- Background rounded square -->
  <rect width="32" height="32" rx="6" fill="#1a1714"/>
  <!-- 4x4 grid of "pages" -->
  <rect x="4" y="4" width="5" height="5" rx="1" fill="#2a7d6a"/>
  <rect x="10.5" y="4" width="5" height="5" rx="1" fill="#2a7d6a"/>
  <rect x="17" y="4" width="5" height="5" rx="1" fill="#c4653a"/>
  <rect x="23.5" y="4" width="5" height="5" rx="1" fill="#2a7d6a"/>
  <rect x="4" y="10.5" width="5" height="5" rx="1" fill="#2a7d6a"/>
  <rect x="10.5" y="10.5" width="5" height="5" rx="1" fill="#c4653a"/>
  <rect x="17" y="10.5" width="5" height="5" rx="1" fill="#2a7d6a"/>
  <rect x="23.5" y="10.5" width="5" height="5" rx="1" fill="#2a7d6a"/>
  <rect x="4" y="17" width="5" height="5" rx="1" fill="#c4653a"/>
  <rect x="10.5" y="17" width="5" height="5" rx="1" fill="#2a7d6a"/>
  <rect x="17" y="17" width="5" height="5" rx="1" fill="#2a7d6a"/>
  <rect x="23.5" y="17" width="5" height="5" rx="1" fill="#2a7d6a"/>
  <rect x="4" y="23.5" width="5" height="5" rx="1" fill="#2a7d6a"/>
  <rect x="10.5" y="23.5" width="5" height="5" rx="1" fill="#2a7d6a"/>
  <rect x="17" y="23.5" width="5" height="5" rx="1" fill="#2a7d6a"/>
  <rect x="23.5" y="23.5" width="5" height="5" rx="1" fill="#c4653a"/>
</svg>
